<svg xmlns="http://www.w3.org/2000/svg"
  width="100%" viewBox="0 0 1180 610" preserveAspectRatio="xMidYMid meet"
  role="img" aria-labelledby="d2Title d2Desc">
  <title id="d2Title">Yellow Duck Coders GitHub profile banner</title>
  <desc id="d2Desc">Animated Yellow Duck Coders developer profile banner with a premium duck illustration, terminal profile panel, skills, and contact links.</desc>

  <defs>
    <linearGradient id="d2Background" x1="0" y1="0" x2="1" y2="1">
      <stop stop-color="#090A0D"/>
      <stop offset=".55" stop-color="#11141A"/>
      <stop offset="1" stop-color="#171A20"/>
    </linearGradient>
    <linearGradient id="d2Panel" x1="0" y1="0" x2="0" y2="1">
      <stop stop-color="#11141A" stop-opacity=".98"/>
      <stop offset="1" stop-color="#0C0E12" stop-opacity=".98"/>
    </linearGradient>
    <linearGradient id="d2Border" x1="0" y1="0" x2="1" y2="1">
      <stop stop-color="#FFFFFF" stop-opacity=".18"/>
      <stop offset=".48" stop-color="#FFC700" stop-opacity=".52"/>
      <stop offset="1" stop-color="#FFFFFF" stop-opacity=".18"/>
    </linearGradient>
    <linearGradient id="d2Reflection" x1="0" y1="0" x2="1" y2="0">
      <stop stop-color="#FFFFFF" stop-opacity="0"/>
      <stop offset=".5" stop-color="#FFFFFF" stop-opacity=".055"/>
      <stop offset="1" stop-color="#FFFFFF" stop-opacity="0"/>
    </linearGradient>
    <radialGradient id="d2Glow">
      <stop stop-color="#FFC700" stop-opacity=".28"/>
      <stop offset=".55" stop-color="#FFC700" stop-opacity=".07"/>
      <stop offset="1" stop-color="#FFC700" stop-opacity="0"/>
    </radialGradient>
    <filter id="d2SoftGlow" x="-40%" y="-40%" width="180%" height="180%">
      <feGaussianBlur stdDeviation="5" result="blur"/>
      <feMerge><feMergeNode in="blur"/><feMergeNode in="SourceGraphic"/></feMerge>
    </filter>
    <clipPath id="d2Outer"><rect width="1180" height="610" rx="28"/></clipPath>
    <clipPath id="d2LeftClip"><rect x="30" y="34" width="392" height="542" rx="24"/></clipPath>
    <clipPath id="d2RightClip"><rect x="446" y="34" width="704" height="542" rx="24"/></clipPath>

    <clipPath id="d2RoleClip1">
      <rect x="500" y="195" width="0" height="28">
        <animate attributeName="width" dur="35s" repeatCount="indefinite"
          values="0;0;246.60000000000002;246.60000000000002;0;0"
          keyTimes="0;0.0000;0.0180;0.1280;0.1380;1"/>
      </rect>
    </clipPath>

    <clipPath id="d2RoleClip2">
      <rect x="500" y="195" width="0" height="28">
        <animate attributeName="width" dur="35s" repeatCount="indefinite"
          values="0;0;298.1;298.1;0;0"
          keyTimes="0;0.1429;0.1609;0.2709;0.2809;1"/>
      </rect>
    </clipPath>

    <clipPath id="d2RoleClip3">
      <rect x="500" y="195" width="0" height="28">
        <animate attributeName="width" dur="35s" repeatCount="indefinite"
          values="0;0;246.60000000000002;246.60000000000002;0;0"
          keyTimes="0;0.2857;0.3037;0.4137;0.4237;1"/>
      </rect>
    </clipPath>

    <clipPath id="d2RoleClip4">
      <rect x="500" y="195" width="0" height="28">
        <animate attributeName="width" dur="35s" repeatCount="indefinite"
          values="0;0;210;210;0;0"
          keyTimes="0;0.4286;0.4466;0.5566;0.5666;1"/>
      </rect>
    </clipPath>

    <clipPath id="d2RoleClip5">
      <rect x="500" y="195" width="0" height="28">
        <animate attributeName="width" dur="35s" repeatCount="indefinite"
          values="0;0;226.0;226.0;0;0"
          keyTimes="0;0.5714;0.5894;0.6994;0.7094;1"/>
      </rect>
    </clipPath>

    <clipPath id="d2RoleClip6">
      <rect x="500" y="195" width="0" height="28">
        <animate attributeName="width" dur="35s" repeatCount="indefinite"
          values="0;0;308.40000000000003;308.40000000000003;0;0"
          keyTimes="0;0.7143;0.7323;0.8423;0.8523;1"/>
      </rect>
    </clipPath>

    <clipPath id="d2RoleClip7">
      <rect x="500" y="195" width="0" height="28">
        <animate attributeName="width" dur="35s" repeatCount="indefinite"
          values="0;0;210;210;0;0"
          keyTimes="0;0.8571;0.8751;0.9851;0.9951;1"/>
      </rect>
    </clipPath>
  </defs>

  <g clip-path="url(#d2Outer)">
    <rect width="1180" height="610" fill="url(#d2Background)"/>

    <circle cx="126" cy="100" r="225" fill="url(#d2Glow)">
      <animate attributeName="cx" values="126;192;126" dur="10s" repeatCount="indefinite"/>
      <animate attributeName="cy" values="100;140;100" dur="12s" repeatCount="indefinite"/>
      <animate attributeName="opacity" values=".72;1;.72" dur="6s" repeatCount="indefinite"/>
    </circle>

    <g stroke="#FFFFFF" stroke-opacity=".035">
      <path d="M0 102h1180M0 204h1180M0 306h1180M0 408h1180M0 510h1180"/>
      <path d="M196 0v610M392 0v610M588 0v610M784 0v610M980 0v610"/>
    </g>

    <g>
      <circle cx="72" cy="76" r="2.3" fill="#FFFFFF" opacity=".34">
        <animate attributeName="cy" values="76;59;76" dur="4.8s" repeatCount="indefinite"/>
        <animate attributeName="opacity" values=".15;.55;.15" dur="4.8s" repeatCount="indefinite"/>
      </circle>
      <circle cx="393" cy="516" r="2.6" fill="#FFC700" opacity=".42">
        <animate attributeName="cx" values="393;375;393" dur="5.4s" repeatCount="indefinite"/>
        <animate attributeName="cy" values="516;496;516" dur="5.4s" repeatCount="indefinite"/>
      </circle>
      <circle cx="1100" cy="91" r="2.2" fill="#FFFFFF" opacity=".28">
        <animate attributeName="cy" values="91;112;91" dur="5.8s" repeatCount="indefinite"/>
      </circle>
      <circle cx="1094" cy="548" r="2.8" fill="#FFC700" opacity=".32">
        <animate attributeName="cx" values="1094;1112;1094" dur="6.4s" repeatCount="indefinite"/>
      </circle>
    </g>

    <rect x="34" y="40" width="392" height="542" rx="24" fill="#000000" opacity=".32"/>
    <rect x="30" y="34" width="392" height="542" rx="24"
      fill="#11141A" fill-opacity=".94"
      stroke="#FFFFFF" stroke-opacity=".12"/>
    <rect x="450" y="40" width="704" height="542" rx="24" fill="#000000" opacity=".32"/>
    <rect x="446" y="34" width="704" height="542" rx="24"
      fill="url(#d2Panel)"
      stroke="#FFFFFF" stroke-opacity=".12"/>

    <rect x="30" y="34" width="392" height="542" rx="24"
      fill="none" stroke="url(#d2Border)" stroke-width="1.2"
      stroke-dasharray="220 760">
      <animate attributeName="stroke-dashoffset" values="0;-980" dur="8s" repeatCount="indefinite"/>
    </rect>
    <rect x="446" y="34" width="704" height="542" rx="24"
      fill="none" stroke="url(#d2Border)" stroke-width="1.2"
      stroke-dasharray="310 940">
      <animate attributeName="stroke-dashoffset" values="0;-1250" dur="9s" repeatCount="indefinite"/>
    </rect>

    <g clip-path="url(#d2LeftClip)">
      <polygon points="-180,34 -20,34 280,576 120,576"
        fill="url(#d2Reflection)" opacity=".34">
        <animateTransform attributeName="transform" type="translate"
          values="0 0;580 0" dur="9.5s" repeatCount="indefinite"/>
      </polygon>
    </g>
    <g clip-path="url(#d2RightClip)">
      <polygon points="260,34 450,34 770,576 580,576"
        fill="url(#d2Reflection)" opacity=".25">
        <animateTransform attributeName="transform" type="translate"
          values="0 0;920 0" dur="11s" repeatCount="indefinite"/>
      </polygon>
    </g>

    <!-- Left panel -->
    <g>
      <text x="56" y="70" fill="#858B95"
        font-family="ui-monospace, SFMono-Regular, Menlo, Monaco, Consolas, Liberation Mono, Courier New, monospace"
        font-size="11.5" font-weight="700" letter-spacing="1.6">
        YDC // BUILT TO SCALE
      </text>
      <circle cx="389" cy="64" r="4" fill="#FFC700">
        <animate attributeName="opacity" values=".35;1;.35" dur="2.1s" repeatCount="indefinite"/>
      </circle>
      <line x1="56" y1="88" x2="396" y2="88"
        stroke="#FFFFFF" stroke-opacity=".12"/>

      
      <g font-family="ui-monospace, SFMono-Regular, Menlo, Monaco, Consolas, Liberation Mono, Courier New, monospace"
         fill="#858B95" opacity=".34">
        <text x="56" y="124" font-size="11.5">[boot] ydc.duck.profile = ready</text>
        <text x="56" y="144" font-size="11.5">[stack] web • mobile • cloud • ai</text>
        <text x="56" y="164" font-size="11.5">[mode] premium developer identity</text>
      </g>
    

      <g clip-path="url(#d2LeftClip)">
        <rect x="38" y="186" width="376" height="38" fill="#FFC700" opacity="0">
          <animate attributeName="y" values="186;476;186" dur="6s" repeatCount="indefinite"/>
          <animate attributeName="opacity" values="0;.08;0" dur="6s" repeatCount="indefinite"/>
        </rect>
        <line x1="44" y1="186" x2="408" y2="186" stroke="#FFC700" stroke-opacity="0">
          <animate attributeName="stroke-opacity" values="0;.24;0" dur="6s" repeatCount="indefinite"/>
          <animate attributeName="y1" values="186;476;186" dur="6s" repeatCount="indefinite"/>
          <animate attributeName="y2" values="186;476;186" dur="6s" repeatCount="indefinite"/>
        </line>
      </g>

      
      <g filter="url(#d2SoftGlow)">
        <animateTransform attributeName="transform" type="translate"
          values="0 0;0 -6;0 0" dur="5.8s" repeatCount="indefinite"/>

        <ellipse cx="210" cy="398" rx="115" ry="18" fill="#FFC700" opacity=".16"/>
        <ellipse cx="210" cy="394" rx="98" ry="11" fill="#FFFFFF" opacity=".08"/>

        <path d="M110 286 L77 262 L89 308 Z"
          fill="#EAEAEA" stroke="#FFFFFF" stroke-opacity=".45" stroke-width="2"/>

        <ellipse cx="202" cy="292" rx="98" ry="63"
          fill="#F7F7F3" fill-opacity=".94"
          stroke="#FFFFFF" stroke-opacity=".28" stroke-width="2.2"/>

        <path d="M146 287 C158 253 228 250 265 286 C244 316 218 329 170 323 C153 317 145 306 146 287 Z"
          fill="#E3E6EB" fill-opacity=".92"
          stroke="#FFFFFF" stroke-opacity=".18" stroke-width="1.8"/>

        <path d="M232 270 C242 254 252 247 264 242 C260 260 261 274 268 290 C255 291 245 286 236 279 C232 276 230 273 232 270 Z"
          fill="#EAEAEA" fill-opacity=".88"
          stroke="#FFFFFF" stroke-opacity=".16" stroke-width="1.4"/>

        <circle cx="281" cy="229" r="34"
          fill="#F7F7F3" fill-opacity=".96"
          stroke="#FFFFFF" stroke-opacity=".28" stroke-width="2.2"/>

        <path d="M252 248 C247 260 248 273 258 286 C247 288 236 286 230 280 C226 268 231 256 252 248 Z"
          fill="#EAEAEA" fill-opacity=".80" opacity=".82"/>

        <polygon points="304,223 357,244 304,260"
          fill="#FFC700" fill-opacity=".98"
          stroke="#FFFFFF" stroke-opacity=".20" stroke-width="1.4"/>

        <path d="M305 238 C319 237 333 239 344 244 C333 249 319 250 305 249 Z"
          fill="#FFE477" fill-opacity=".92"/>

        <circle cx="287" cy="225" r="3.9" fill="#FFFFFF" opacity=".9"/>
        <circle cx="288.2" cy="223.7" r="1.15" fill="#090A0D" opacity=".95"/>

        <path d="M182 349 L176 388" stroke="#FFFFFF" stroke-opacity=".46" stroke-width="3.1" stroke-linecap="round"/>
        <path d="M205 349 L214 388" stroke="#FFFFFF" stroke-opacity=".46" stroke-width="3.1" stroke-linecap="round"/>
        <path d="M167 390 H192" stroke="#FFC700" stroke-opacity=".8" stroke-width="3" stroke-linecap="round"/>
        <path d="M205 390 H228" stroke="#FFC700" stroke-opacity=".8" stroke-width="3" stroke-linecap="round"/>

        <path d="M120 256 C145 235 195 222 249 231"
          fill="none" stroke="#FFFFFF" stroke-opacity=".10" stroke-width="2"/>
        <path d="M118 329 C145 346 201 351 262 336"
          fill="none" stroke="#FFFFFF" stroke-opacity=".08" stroke-width="2"/>

        <animate attributeName="opacity" values=".93;1;.93" dur="3.6s" repeatCount="indefinite"/>
      </g>

      <g font-family="ui-monospace, SFMono-Regular, Menlo, Monaco, Consolas, Liberation Mono, Courier New, monospace">
        <text x="56" y="460" fill="#FFC700" font-size="11.8" font-weight="700">› yellow duck coders</text>
        <text x="56" y="485" fill="#D4D7DC" font-size="14.5" font-weight="700">Web • Mobile • Cloud • AI</text>
        <text x="56" y="507" fill="#858B95" font-size="11.3">Scalable digital products with modern engineering</text>
      </g>
    

      <rect x="56" y="522" width="340" height="28" rx="12"
        fill="#FFFFFF" fill-opacity=".055"
        stroke="#FFFFFF" stroke-opacity=".12"/>
      <text x="74" y="540" fill="#D4D7DC"
        font-family="ui-monospace, SFMono-Regular, Menlo, Monaco, Consolas, Liberation Mono, Courier New, monospace"
        font-size="11.4" font-weight="650">ye-du-dev</text>
      <text x="172" y="540" fill="#858B95"
        font-family="ui-monospace, SFMono-Regular, Menlo, Monaco, Consolas, Liberation Mono, Courier New, monospace"
        font-size="10.6">product engineering • automation • scale</text>
    </g>

    <!-- Right panel -->
    <g>
      <rect x="446" y="34" width="704" height="50" rx="24"
        fill="#FFFFFF" fill-opacity=".035"/>
      <rect x="446" y="66" width="704" height="18"
        fill="#FFFFFF" fill-opacity=".035"/>
      <circle cx="474" cy="59" r="5" fill="#FFFFFF" opacity=".26"/>
      <circle cx="492" cy="59" r="5" fill="#FFC700" opacity=".62"/>
      <circle cx="510" cy="59" r="5" fill="#FFFFFF" opacity=".16"/>
      <text x="798" y="63" text-anchor="middle" fill="#858B95"
        font-family="ui-monospace, SFMono-Regular, Menlo, Monaco, Consolas, Liberation Mono, Courier New, monospace"
        font-size="11.5" font-weight="650">yellowduckcoders@github:~$</text>
      <line x1="446" y1="84" x2="1150" y2="84"
        stroke="#FFFFFF" stroke-opacity=".12"/>

      <g font-family="-apple-system, BlinkMacSystemFont, Segoe UI, Helvetica, Arial, sans-serif">
        <text x="500" y="132" fill="#D4D7DC" font-size="18" font-weight="650">Hi</text>
        <g transform="translate(532 114)" stroke="#FFC700" stroke-width="2.1"
          stroke-linecap="round" stroke-linejoin="round" fill="none">
          <path d="M9 17c-2.7-1.1-4.2-3.6-3.5-6.1l1.7-6.2c.2-.8 1-1.3 1.8-1.1.8.2 1.3 1 1.1 1.8l-.8 3 1.5-6c.2-.8 1-1.3 1.8-1.1.8.2 1.3 1 1.1 1.8l-1.4 5.4 1.8-5.5c.3-.8 1.1-1.2 1.9-.9.8.3 1.2 1.1.9 1.9l-1.7 5.2 1.5-3.8c.3-.8 1.2-1.2 2-.8.8.3 1.2 1.2.8 2l-2 5.1c-1.1 3-4.4 4.6-7.5 3.3z">
            <animateTransform attributeName="transform" type="rotate"
              values="0 12 12;-10 12 12;8 12 12;0 12 12"
              dur="2.8s" repeatCount="indefinite"/>
          </path>
        </g>
        <text x="500" y="169" fill="#FFFFFF" font-size="26"
          font-weight="760" letter-spacing="-.25">I'm Yellow Duck Coders</text>
      </g>

      <g font-family="ui-monospace, SFMono-Regular, Menlo, Monaco, Consolas, Liberation Mono, Courier New, monospace">
        <text x="500" y="191" fill="#FFC700" font-size="11.8" font-weight="700">› roles</text>
        <g fill="#D4D7DC" font-size="16.5" font-weight="650">

      <g opacity="1">
        <animate attributeName="opacity" dur="35s" repeatCount="indefinite"
          values="1;1;0;0" keyTimes="0;0.1280;0.1380;1"/>
        <text x="500" y="216" clip-path="url(#d2RoleClip1)">Full Stack Development</text>
        <rect x="723.4" y="199" width="7" height="19" rx="1.5" fill="#FFC700">
          <animate attributeName="opacity" values="1;1;0;0;1"
            keyTimes="0;.42;.43;.92;1" dur=".9s" repeatCount="indefinite"/>
        </rect>
      </g>

      <g opacity="0">
        <animate attributeName="opacity" dur="35s" repeatCount="indefinite"
          values="0;0;1;1;0;0" keyTimes="0;0.1429;0.1489;0.2709;0.2809;1"/>
        <text x="500" y="216" clip-path="url(#d2RoleClip2)">Web Application Development</text>
        <rect x="771.9" y="199" width="7" height="19" rx="1.5" fill="#FFC700">
          <animate attributeName="opacity" values="1;1;0;0;1"
            keyTimes="0;.42;.43;.92;1" dur=".9s" repeatCount="indefinite"/>
        </rect>
      </g>

      <g opacity="0">
        <animate attributeName="opacity" dur="35s" repeatCount="indefinite"
          values="0;0;1;1;0;0" keyTimes="0;0.2857;0.2917;0.4137;0.4237;1"/>
        <text x="500" y="216" clip-path="url(#d2RoleClip3)">Mobile App Development</text>
        <rect x="723.4" y="199" width="7" height="19" rx="1.5" fill="#FFC700">
          <animate attributeName="opacity" values="1;1;0;0;1"
            keyTimes="0;.42;.43;.92;1" dur=".9s" repeatCount="indefinite"/>
        </rect>
      </g>

      <g opacity="0">
        <animate attributeName="opacity" dur="35s" repeatCount="indefinite"
          values="0;0;1;1;0;0" keyTimes="0;0.4286;0.4346;0.5566;0.5666;1"/>
        <text x="500" y="216" clip-path="url(#d2RoleClip4)">Cloud &amp; DevOps</text>
        <rect x="645.8" y="199" width="7" height="19" rx="1.5" fill="#FFC700">
          <animate attributeName="opacity" values="1;1;0;0;1"
            keyTimes="0;.42;.43;.92;1" dur=".9s" repeatCount="indefinite"/>
        </rect>
      </g>

      <g opacity="0">
        <animate attributeName="opacity" dur="35s" repeatCount="indefinite"
          values="0;0;1;1;0;0" keyTimes="0;0.5714;0.5774;0.6994;0.7094;1"/>
        <text x="500" y="216" clip-path="url(#d2RoleClip5)">AI-Powered Solutions</text>
        <rect x="704.0" y="199" width="7" height="19" rx="1.5" fill="#FFC700">
          <animate attributeName="opacity" values="1;1;0;0;1"
            keyTimes="0;.42;.43;.92;1" dur=".9s" repeatCount="indefinite"/>
        </rect>
      </g>

      <g opacity="0">
        <animate attributeName="opacity" dur="35s" repeatCount="indefinite"
          values="0;0;1;1;0;0" keyTimes="0;0.7143;0.7203;0.8423;0.8523;1"/>
        <text x="500" y="216" clip-path="url(#d2RoleClip6)">AI Integrations &amp; Automation</text>
        <rect x="781.6" y="199" width="7" height="19" rx="1.5" fill="#FFC700">
          <animate attributeName="opacity" values="1;1;0;0;1"
            keyTimes="0;.42;.43;.92;1" dur=".9s" repeatCount="indefinite"/>
        </rect>
      </g>

      <g opacity="0">
        <animate attributeName="opacity" dur="35s" repeatCount="indefinite"
          values="0;0;1;1;0;0" keyTimes="0;0.8571;0.8631;0.9851;0.9951;1"/>
        <text x="500" y="216" clip-path="url(#d2RoleClip7)">Custom AI Agents</text>
        <rect x="665.2" y="199" width="7" height="19" rx="1.5" fill="#FFC700">
          <animate attributeName="opacity" values="1;1;0;0;1"
            keyTimes="0;.42;.43;.92;1" dur=".9s" repeatCount="indefinite"/>
        </rect>
      </g>
        </g>
      </g>

      <line x1="500" y1="232" x2="1116" y2="232"
        stroke="#FFFFFF" stroke-opacity=".12"/>

      <g font-family="-apple-system, BlinkMacSystemFont, Segoe UI, Helvetica, Arial, sans-serif"
        fill="#D4D7DC" font-size="13.2">
        <g opacity="0">
          <animate attributeName="opacity" from="0" to="1" dur=".5s" begin=".7s" fill="freeze"/>
          <animateTransform attributeName="transform" type="translate" from="0 5" to="0 0" dur=".5s" begin=".7s" fill="freeze"/>
          <text x="500" y="260" fill="#FFC700"
            font-family="ui-monospace, SFMono-Regular, Menlo, Monaco, Consolas, Liberation Mono, Courier New, monospace"
            font-size="11.8" font-weight="700">› location</text>
          <text x="605" y="260" font-weight="560">Chernivtsi, Ukraine</text>
        </g>
        <g opacity="0">
          <animate attributeName="opacity" from="0" to="1" dur=".5s" begin="1.05s" fill="freeze"/>
          <animateTransform attributeName="transform" type="translate" from="0 5" to="0 0" dur=".5s" begin="1.05s" fill="freeze"/>
          <text x="500" y="288" fill="#FFC700"
            font-family="ui-monospace, SFMono-Regular, Menlo, Monaco, Consolas, Liberation Mono, Courier New, monospace"
            font-size="11.8" font-weight="700">› focus</text>
          <text x="605" y="288">
            <tspan x="605">Creating scalable digital products powered by modern web,</tspan>
            <tspan x="605" dy="17">cloud, mobile, and AI technologies</tspan>
          </text>
        </g>
        <g opacity="0">
          <animate attributeName="opacity" from="0" to="1" dur=".5s" begin="1.4s" fill="freeze"/>
          <animateTransform attributeName="transform" type="translate" from="0 5" to="0 0" dur=".5s" begin="1.4s" fill="freeze"/>
          <text x="500" y="339" fill="#FFC700"
            font-family="ui-monospace, SFMono-Regular, Menlo, Monaco, Consolas, Liberation Mono, Courier New, monospace"
            font-size="11.8" font-weight="700">› portfolio</text>
          <text x="605" y="339" font-weight="560">https://yeducoders.com/</text>
        </g>
        <g opacity="0">
          <animate attributeName="opacity" from="0" to="1" dur=".5s" begin="1.75s" fill="freeze"/>
          <animateTransform attributeName="transform" type="translate" from="0 5" to="0 0" dur=".5s" begin="1.75s" fill="freeze"/>
          <text x="500" y="367" fill="#FFC700"
            font-family="ui-monospace, SFMono-Regular, Menlo, Monaco, Consolas, Liberation Mono, Courier New, monospace"
            font-size="11.8" font-weight="700">› email</text>
          <text x="605" y="367" font-weight="560">yellowduckcoders@gmail.com</text>
        </g>
      </g>

      <line x1="500" y1="389" x2="1116" y2="389"
        stroke="#FFFFFF" stroke-opacity=".12"/>
      <text x="500" y="411" fill="#858B95"
        font-family="ui-monospace, SFMono-Regular, Menlo, Monaco, Consolas, Liberation Mono, Courier New, monospace"
        font-size="11.5" font-weight="700" letter-spacing=".9">SKILLS / TOOLCHAIN</text>

      <g font-family="-apple-system, BlinkMacSystemFont, Segoe UI, Helvetica, Arial, sans-serif">

      <g>
        <animateTransform attributeName="transform" type="translate"
          values="0 0;0 -1.2;0 0" dur="4.80s"
          begin="0.00s" repeatCount="indefinite"/>
        <rect x="500" y="426" width="48" height="24" rx="12"
          fill="#FFFFFF" fill-opacity=".055"
          stroke="#FFFFFF" stroke-opacity=".14"/>
        <text x="524.0" y="442.2" text-anchor="middle"
          fill="#D4D7DC" font-size="11.5" font-weight="650">PHP</text>
      </g>

      <g>
        <animateTransform attributeName="transform" type="translate"
          values="0 0;0 -1.2;0 0" dur="5.35s"
          begin="0.18s" repeatCount="indefinite"/>
        <rect x="556" y="426" width="68.9" height="24" rx="12"
          fill="#FFFFFF" fill-opacity=".055"
          stroke="#FFFFFF" stroke-opacity=".14"/>
        <text x="590.5" y="442.2" text-anchor="middle"
          fill="#D4D7DC" font-size="11.5" font-weight="650">Laravel</text>
      </g>

      <g>
        <animateTransform attributeName="transform" type="translate"
          values="0 0;0 -1.2;0 0" dur="5.90s"
          begin="0.36s" repeatCount="indefinite"/>
        <rect x="632.9" y="426" width="62.2" height="24" rx="12"
          fill="#FFFFFF" fill-opacity=".055"
          stroke="#FFFFFF" stroke-opacity=".14"/>
        <text x="664.0" y="442.2" text-anchor="middle"
          fill="#D4D7DC" font-size="11.5" font-weight="650">Python</text>
      </g>

      <g>
        <animateTransform attributeName="transform" type="translate"
          values="0 0;0 -1.2;0 0" dur="6.45s"
          begin="0.54s" repeatCount="indefinite"/>
        <rect x="703.1" y="426" width="62.2" height="24" rx="12"
          fill="#FFFFFF" fill-opacity=".055"
          stroke="#FFFFFF" stroke-opacity=".14"/>
        <text x="734.2" y="442.2" text-anchor="middle"
          fill="#D4D7DC" font-size="11.5" font-weight="650">Django</text>
      </g>

      <g>
        <animateTransform attributeName="transform" type="translate"
          values="0 0;0 -1.2;0 0" dur="4.80s"
          begin="0.72s" repeatCount="indefinite"/>
        <rect x="773.3" y="426" width="68.9" height="24" rx="12"
          fill="#FFFFFF" fill-opacity=".055"
          stroke="#FFFFFF" stroke-opacity=".14"/>
        <text x="807.8" y="442.2" text-anchor="middle"
          fill="#D4D7DC" font-size="11.5" font-weight="650">FastAPI</text>
      </g>

      <g>
        <animateTransform attributeName="transform" type="translate"
          values="0 0;0 -1.2;0 0" dur="5.35s"
          begin="0.00s" repeatCount="indefinite"/>
        <rect x="850.2" y="426" width="68.9" height="24" rx="12"
          fill="#FFFFFF" fill-opacity=".055"
          stroke="#FFFFFF" stroke-opacity=".14"/>
        <text x="884.7" y="442.2" text-anchor="middle"
          fill="#D4D7DC" font-size="11.5" font-weight="650">Node.js</text>
      </g>

      <g>
        <animateTransform attributeName="transform" type="translate"
          values="0 0;0 -1.2;0 0" dur="5.90s"
          begin="0.18s" repeatCount="indefinite"/>
        <rect x="927.1" y="426" width="62.2" height="24" rx="12"
          fill="#FFFFFF" fill-opacity=".055"
          stroke="#FFFFFF" stroke-opacity=".14"/>
        <text x="958.2" y="442.2" text-anchor="middle"
          fill="#D4D7DC" font-size="11.5" font-weight="650">NestJS</text>
      </g>

      <g>
        <animateTransform attributeName="transform" type="translate"
          values="0 0;0 -1.2;0 0" dur="6.45s"
          begin="0.36s" repeatCount="indefinite"/>
        <rect x="997.3" y="426" width="89.0" height="24" rx="12"
          fill="#FFFFFF" fill-opacity=".055"
          stroke="#FFFFFF" stroke-opacity=".14"/>
        <text x="1041.8" y="442.2" text-anchor="middle"
          fill="#D4D7DC" font-size="11.5" font-weight="650">TypeScript</text>
      </g>

      <g>
        <animateTransform attributeName="transform" type="translate"
          values="0 0;0 -1.2;0 0" dur="4.80s"
          begin="0.54s" repeatCount="indefinite"/>
        <rect x="500" y="458" width="62.2" height="24" rx="12"
          fill="#FFFFFF" fill-opacity=".055"
          stroke="#FFFFFF" stroke-opacity=".14"/>
        <text x="531.1" y="474.2" text-anchor="middle"
          fill="#D4D7DC" font-size="11.5" font-weight="650">Vue.js</text>
      </g>

      <g>
        <animateTransform attributeName="transform" type="translate"
          values="0 0;0 -1.2;0 0" dur="5.35s"
          begin="0.72s" repeatCount="indefinite"/>
        <rect x="570.2" y="458" width="55.5" height="24" rx="12"
          fill="#FFFFFF" fill-opacity=".055"
          stroke="#FFFFFF" stroke-opacity=".14"/>
        <text x="598.0" y="474.2" text-anchor="middle"
          fill="#D4D7DC" font-size="11.5" font-weight="650">React</text>
      </g>

      <g>
        <animateTransform attributeName="transform" type="translate"
          values="0 0;0 -1.2;0 0" dur="5.90s"
          begin="0.00s" repeatCount="indefinite"/>
        <rect x="633.7" y="458" width="68.9" height="24" rx="12"
          fill="#FFFFFF" fill-opacity=".055"
          stroke="#FFFFFF" stroke-opacity=".14"/>
        <text x="668.2" y="474.2" text-anchor="middle"
          fill="#D4D7DC" font-size="11.5" font-weight="650">Next.js</text>
      </g>

      <g>
        <animateTransform attributeName="transform" type="translate"
          values="0 0;0 -1.2;0 0" dur="6.45s"
          begin="0.18s" repeatCount="indefinite"/>
        <rect x="710.6" y="458" width="102.4" height="24" rx="12"
          fill="#FFFFFF" fill-opacity=".055"
          stroke="#FFFFFF" stroke-opacity=".14"/>
        <text x="761.8" y="474.2" text-anchor="middle"
          fill="#D4D7DC" font-size="11.5" font-weight="650">React Native</text>
      </g>

      <g>
        <animateTransform attributeName="transform" type="translate"
          values="0 0;0 -1.2;0 0" dur="4.80s"
          begin="0.36s" repeatCount="indefinite"/>
        <rect x="821.0" y="458" width="89.0" height="24" rx="12"
          fill="#FFFFFF" fill-opacity=".055"
          stroke="#FFFFFF" stroke-opacity=".14"/>
        <text x="865.5" y="474.2" text-anchor="middle"
          fill="#D4D7DC" font-size="11.5" font-weight="650">PostgreSQL</text>
      </g>

      <g>
        <animateTransform attributeName="transform" type="translate"
          values="0 0;0 -1.2;0 0" dur="5.35s"
          begin="0.54s" repeatCount="indefinite"/>
        <rect x="918.0" y="458" width="55.5" height="24" rx="12"
          fill="#FFFFFF" fill-opacity=".055"
          stroke="#FFFFFF" stroke-opacity=".14"/>
        <text x="945.8" y="474.2" text-anchor="middle"
          fill="#D4D7DC" font-size="11.5" font-weight="650">MySQL</text>
      </g>

      <g>
        <animateTransform attributeName="transform" type="translate"
          values="0 0;0 -1.2;0 0" dur="5.90s"
          begin="0.72s" repeatCount="indefinite"/>
        <rect x="981.5" y="458" width="75.6" height="24" rx="12"
          fill="#FFFFFF" fill-opacity=".055"
          stroke="#FFFFFF" stroke-opacity=".14"/>
        <text x="1019.3" y="474.2" text-anchor="middle"
          fill="#D4D7DC" font-size="11.5" font-weight="650">DynamoDB</text>
      </g>

      <g>
        <animateTransform attributeName="transform" type="translate"
          values="0 0;0 -1.2;0 0" dur="6.45s"
          begin="0.00s" repeatCount="indefinite"/>
        <rect x="500" y="490" width="55.5" height="24" rx="12"
          fill="#FFFFFF" fill-opacity=".055"
          stroke="#FFFFFF" stroke-opacity=".14"/>
        <text x="527.8" y="506.2" text-anchor="middle"
          fill="#D4D7DC" font-size="11.5" font-weight="650">Redis</text>
      </g>

      <g>
        <animateTransform attributeName="transform" type="translate"
          values="0 0;0 -1.2;0 0" dur="4.80s"
          begin="0.18s" repeatCount="indefinite"/>
        <rect x="563.5" y="490" width="48" height="24" rx="12"
          fill="#FFFFFF" fill-opacity=".055"
          stroke="#FFFFFF" stroke-opacity=".14"/>
        <text x="587.5" y="506.2" text-anchor="middle"
          fill="#D4D7DC" font-size="11.5" font-weight="650">AWS</text>
      </g>

      <g>
        <animateTransform attributeName="transform" type="translate"
          values="0 0;0 -1.2;0 0" dur="5.35s"
          begin="0.36s" repeatCount="indefinite"/>
        <rect x="619.5" y="490" width="62.2" height="24" rx="12"
          fill="#FFFFFF" fill-opacity=".055"
          stroke="#FFFFFF" stroke-opacity=".14"/>
        <text x="650.6" y="506.2" text-anchor="middle"
          fill="#D4D7DC" font-size="11.5" font-weight="650">Docker</text>
      </g>

      <g>
        <animateTransform attributeName="transform" type="translate"
          values="0 0;0 -1.2;0 0" dur="5.90s"
          begin="0.54s" repeatCount="indefinite"/>
        <rect x="689.7" y="490" width="82.3" height="24" rx="12"
          fill="#FFFFFF" fill-opacity=".055"
          stroke="#FFFFFF" stroke-opacity=".14"/>
        <text x="730.9" y="506.2" text-anchor="middle"
          fill="#D4D7DC" font-size="11.5" font-weight="650">Terraform</text>
      </g>

      <g>
        <animateTransform attributeName="transform" type="translate"
          values="0 0;0 -1.2;0 0" dur="6.45s"
          begin="0.72s" repeatCount="indefinite"/>
        <rect x="780.0" y="490" width="62.2" height="24" rx="12"
          fill="#FFFFFF" fill-opacity=".055"
          stroke="#FFFFFF" stroke-opacity=".14"/>
        <text x="811.1" y="506.2" text-anchor="middle"
          fill="#D4D7DC" font-size="11.5" font-weight="650">OpenAI</text>
      </g>
      </g>

      <line x1="500" y1="530" x2="1116" y2="530"
        stroke="#FFFFFF" stroke-opacity=".12"/>

      <g font-family="-apple-system, BlinkMacSystemFont, Segoe UI, Helvetica, Arial, sans-serif"
        fill="#D4D7DC" font-size="12.2" font-weight="650">
        <g transform="translate(500 540)">
          <circle cx="9" cy="9" r="8.5" fill="#FFFFFF" fill-opacity=".055"
            stroke="#FFFFFF" stroke-opacity=".14"/>
          <path d="M5.8 13.2c-2-1.5-2.5-4.3-1.1-6.4 1.4-2.1 4.3-2.8 6.4-1.4 2.2 1.3 2.9 4.1 1.7 6.3-.5 1-1.4 1.7-2.4 2.2v-1.9c0-.5-.2-.9-.5-1.2 1.4-.2 2.7-.6 2.7-2.9 0-.6-.2-1.2-.6-1.6.1-.5.1-1.1-.1-1.6 0 0-.5-.2-1.8.6a6.4 6.4 0 0 0-3.2 0c-1.2-.8-1.8-.6-1.8-.6-.2.5-.2 1.1-.1 1.6-.4.4-.6 1-.6 1.6 0 2.2 1.4 2.7 2.7 2.9-.2.2-.4.5-.4.7-.5.2-1.6.5-2.3-.6 0 0-.4-.8-1.2-.9-.1 0-.9.1-.1.6 0 0 .6.3 1 1.1 0 0 .5 1.5 2.7 1.1v1.1c-.4.2-.8.3-1.2.2z"
            fill="#FFFFFF" opacity=".84"/>
          <text x="25" y="13">GitHub</text>
        </g>
        <g transform="translate(625 540)">
          <rect x=".5" y=".5" width="17" height="17" rx="5"
            fill="#FFFFFF" fill-opacity=".055"
            stroke="#FFFFFF" stroke-opacity=".14"/>
          <text x="9" y="13.5" text-anchor="middle" fill="#FFFFFF" font-size="10.8" font-weight="800">in</text>
          <text x="25" y="13">LinkedIn</text>
        </g>
        <g transform="translate(760 540)">
          <circle cx="9" cy="9" r="8.5"
            fill="#FFFFFF" fill-opacity=".055"
            stroke="#FFFFFF" stroke-opacity=".14"/>
          <circle cx="9" cy="9" r="5" fill="none" stroke="#FFFFFF" stroke-opacity=".78"/>
          <line x1="1.5" y1="9" x2="16.5" y2="9" stroke="#FFFFFF" stroke-opacity=".78"/>
          <line x1="9" y1="1.5" x2="9" y2="16.5" stroke="#FFFFFF" stroke-opacity=".78"/>
          <text x="25" y="13">yeducoders.com</text>
        </g>
      </g>
    </g>
  </g>
</svg>
